/* XPM */
static char *f8e7102f22c448a1cf003d5b7a35c734QFEFLA96sXEgihqk[] = {
/* columns rows colors chars-per-pixel */
"24 21 131 2 ",
"   c None",
".  c #415EA1",
"X  c #4565A9",
"o  c #4564AB",
"O  c #4665AB",
"+  c #4767AD",
"@  c #4D70AE",
"#  c #4B6DB3",
"$  c #4C6EB3",
"%  c #4C6EB4",
"&  c #4C6EB5",
"*  c #4D6FB6",
"=  c #4B6EB9",
"-  c #4C6FB8",
";  c #4D6FB8",
":  c #4D70B8",
">  c #4D70B9",
",  c #4D71B9",
"<  c #4E71B8",
"1  c #4E71B9",
"2  c #4E71BA",
"3  c #4E72BA",
"4  c #4E72BB",
"5  c #4C70BC",
"6  c #4E71BC",
"7  c #4E71BD",
"8  c #4F73BC",
"9  c #4F73BD",
"0  c #4F73BE",
"q  c #5074B3",
"w  c #5074BE",
"e  c #5074BF",
"r  c #5075BF",
"t  c #5073C1",
"y  c #5075C0",
"u  c #5175C0",
"i  c #5074C1",
"p  c #5075C1",
"a  c #5175C1",
"s  c #5176C1",
"d  c #5175C2",
"f  c #5176C2",
"g  c #5277C2",
"h  c #5277C3",
"j  c #5277C4",
"k  c #577EC2",
"l  c #5278C4",
"z  c #5278C5",
"x  c #5378C5",
"c  c #5379C7",
"v  c #547AC7",
"b  c #547BCA",
"n  c #567DCD",
"m  c #577ECE",
"M  c #577FD0",
"N  c #587FD1",
"B  c #5A82BA",
"V  c #5B85BF",
"C  c #5880D2",
"Z  c #5981D4",
"A  c #5A83D8",
"S  c #6591CB",
"D  c #6995CD",
"F  c #70A3D2",
"G  c #70A0D4",
"H  c #72A6D5",
"J  c #75A5D6",
"K  c #79ADDB",
"L  c #7DB0DD",
"P  c #7DB1DD",
"I  c #7DB2DD",
"U  c #7FB3DD",
"Y  c #7DB3DE",
"T  c #7DB4DF",
"R  c #7CB5DF",
"E  c #7DB5DF",
"W  c #5E89E1",
"Q  c #7BB6E0",
"!  c #7CB6E0",
"~  c #7DB6E0",
"^  c #7DB6E1",
"/  c #7CB7E1",
"(  c #7DB7E1",
")  c #7EB7E1",
"_  c #7DB7E2",
"`  c #7EB6E2",
"'  c #7FB7E2",
"]  c #7CB8E1",
"[  c #7CB8E2",
"{  c #7DB8E2",
"}  c #7DB9E2",
"|  c #7DB9E3",
" . c #7FBAE3",
".. c #7EB8E4",
"X. c #7FB9E4",
"o. c #7EBAE4",
"O. c #7EBBE4",
"+. c #7FBAE5",
"@. c #80B5DE",
"#. c #81B6DE",
"$. c #81B7E4",
"%. c #82B8E6",
"&. c #81BBE7",
"*. c #82BAE7",
"=. c #82BCE5",
"-. c #81BCE6",
";. c #80BCE7",
":. c #80BDE7",
">. c #81BEE6",
",. c #83BBEA",
"<. c #82BFEA",
"1. c #86BEED",
"2. c #82C0EC",
"3. c #83C1ED",
"4. c #84C0ED",
"5. c #86C2EF",
"6. c #88C0EF",
"7. c #87C2F1",
"8. c #85C4F0",
"9. c #87C5F3",
"0. c #86C6F3",
"q. c #87C7F4",
"w. c #8AC3F1",
"e. c #89C2F3",
"r. c #88C8F5",
"t. c #88C9F6",
"y. c #89CAF8",
"u. c #8BCAF9",
"i. c #8BCEFC",
"p. c #8CCDFC",
"a. c #91D5FF",
/* pixels */
"            C w       | r.|     X.q.            ",
"            C 9         2.8.    X.8.            ",
"            a m 4       O.y.| | w.^             ",
"              c a         | ;.X.5.              ",
"      a v a a a w 4 % # O H =.=.R               ",
"      j b b a 5 ; ; 4 4 4 @ ^ 7.R       c       ",
"              D S             1.^     a A a     ",
"            @.w.I             I e.@.  m c       ",
"            ,.=.                1.J w C w       ",
"  R R ^ ^ I 7.I                 K k 5 a w a a   ",
"| a.p.y.5.X.^                     4 w c C C W a ",
"  ^ Q Q ^ =.F .                 $ l : 4 4 4 w   ",
"      ^ q.X.q 4                 : w             ",
"      X.8.  O c #             O a +             ",
"    [ p.|     4 w             B V               ",
"      2.      % c 4 G 1.$.=.$.;.;.<.2.2.;.      ",
"              4 l 5 k @.I I R ....^ | X.|       ",
"              c a l w         ;.2.              ",
"            5 m w a C a       ^ r.|             ",
"            m l     m b         ^ r.            ",
"            C a     l C a       | r.            "
};
